HIERARCHY
ROOT pelvis
{
  OFFSET 0 100 0
  CHANNELS 6 Xposition Yposition Zposition Zrotation Xrotation Yrotation
  JOINT pelvis_right_femur
  {
    OFFSET -10.78128 -3.44521 -0.5502486
    CHANNELS 3 Zrotation Xrotation Yrotation
    JOINT right_femur_tibia
    {
      OFFSET -0.8047443 -44.0398 -0.1307829
      CHANNELS 3 Zrotation Xrotation Yrotation
      JOINT right_tibia_foot
      {
        OFFSET 3.006224 -47.83518 -5
        CHANNELS 3 Zrotation Xrotation Yrotation
        End Site
        {
          OFFSET 0 -5 15
        }
      }
    }
  }
  JOINT pelvis_left_femur
  {
    OFFSET 10.78128 -3.44521 -0.5502486
    CHANNELS 3 Zrotation Xrotation Yrotation
    JOINT left_femur_tibia
    {
      OFFSET 0.8047443 -44.0398 -0.1307829
      CHANNELS 3 Zrotation Xrotation Yrotation
      JOINT left_tibia_foot
      {
        OFFSET -4.370144 -48.10324 -4.275266
        CHANNELS 3 Zrotation Xrotation Yrotation
        End Site
        {
          OFFSET 0 -5 15
        }
      }
    }
  }
  JOINT pelvis_spine1
  {
    OFFSET 0 6.468898 -3.129235
    CHANNELS 3 Zrotation Xrotation Yrotation
    JOINT spine1
    {
      OFFSET 0 23.15396 4.99043
      CHANNELS 3 Zrotation Xrotation Yrotation
      JOINT spine2
      {
        OFFSET 0 20.79997 -5.064912
        CHANNELS 3 Zrotation Xrotation Yrotation
        JOINT neck
        {
          OFFSET 0 14.38658 9.616178
          CHANNELS 3 Zrotation Xrotation Yrotation
          End Site
          {
            OFFSET 0 20 0
          }
        }
      }
      JOINT right_manubrium
      {
        OFFSET -5.722621 16.35077 3.967754
        CHANNELS 3 Zrotation Xrotation Yrotation
        JOINT right_clavicle
        {
          OFFSET -13.16364 1.694482 -4.693211
          CHANNELS 3 Zrotation Xrotation Yrotation
          JOINT right_humerus
          {
            OFFSET -28.5034 -0.3100689 -2.792744
            CHANNELS 3 Zrotation Xrotation Yrotation
            JOINT right_radius
            {
              OFFSET -25.15693 0.02248979 -1.271978
              CHANNELS 3 Zrotation Xrotation Yrotation
              End Site
              {
                OFFSET -15 0 0
              }
            }
          }
        }
      }
      JOINT left_manubrium
      {
        OFFSET 5.722621 16.35077 3.967754
        CHANNELS 3 Zrotation Xrotation Yrotation
        JOINT left_clavicle
        {
          OFFSET 13.16364 1.694482 -4.693211
          CHANNELS 3 Zrotation Xrotation Yrotation
          JOINT left_humerus
          {
            OFFSET 29.39168 -1.063119 -2.237045
            CHANNELS 3 Zrotation Xrotation Yrotation
            JOINT left_radius
            {
              OFFSET 24.59957 -0.9528479 0.9047498
              CHANNELS 3 Zrotation Xrotation Yrotation
              End Site
              {
                OFFSET 15 -0 -0
              }
            }
          }
        }
      }
    }
  }
}
MOTION
Frames: 7
Frame Time: 0.0416666666667
-302.0516 100.3493 3084.876 -1.105185 -7.667342 -21.63979 -0.01597396 15.43699 2.524235 -0 40.26003 -0 -1.380005 -1.892669 -1.642624 -3.54151 -17.08026 -7.55379 -0 21.19292 -0 -2.604164 -8.157438 18.935 0.4212594 -2.976729 8.608998 -0.9271326 12.90976 -2.2853 2.132188 19.79933 1.254816 -2.006473 -21.10885 6.097676 -4.455878 -33.82548 10.77503 84.70556 15.7914 1.656643 -0 0 35.94337 -24.73404 14.52611 21.39415 1.173003 -14.58219 -4.220082 -99.33801 15.89689 42.41837 0 0 -4.383557 -1.152288 10.94644 14.48381
-303.3852 101.4349 3091.53 -1.059705 -8.302761 -20.9493 -0.2421809 11.13616 2.38753 -0 48.35056 -0 -1.471345 2.128914 -2.55212 -4.635573 -12.75114 -8.246363 -0 21.88337 -0 -1.639287 -9.132839 18.63579 0.3464343 -2.605714 8.249751 -0.9151537 12.83155 -2.379426 2.220811 20.35194 1.479946 -1.690334 -21.04479 6.194292 -4.40239 -32.55341 10.73353 85.44812 15.90266 0.3172042 -0 0 33.57067 -24.39466 13.70955 20.48258 1.375766 -14.91161 -4.352621 -99.06505 16.50731 40.87313 0 0 -4.11428 -0.8138095 11.24292 14.23164
-304.6177 102.742 3097.746 -1.200309 -8.612365 -19.97347 -0.1020582 5.28282 2.456634 -0 53.9552 -0 -1.477164 4.575199 -3.752525 -5.132132 -7.923566 -8.585878 -0 21.16074 -0 -0.9198215 -10.26422 18.2028 0.3374767 -2.253548 7.860081 -0.8915474 12.86877 -2.586577 2.302133 20.85124 1.715828 -1.367261 -21.02305 6.294562 -4.404161 -31.2503 10.69812 86.48045 16.09877 -1.41004 -0 0 30.91928 -24.02393 13.02686 19.45439 1.587091 -15.49355 -4.576767 -98.53092 17.04031 39.11632 0 0 -4.38639 -0.3039498 11.56481 13.88648
-305.7533 103.9386 3103.497 -1.435733 -8.533641 -18.86879 0.2323193 -1.522075 2.555797 -0 55.46096 -0 -1.564577 5.198018 -4.939785 -5.17645 -2.956068 -8.728443 -0 19.15232 -0 -0.5880943 -11.62432 17.6319 0.3812367 -1.946156 7.450946 -0.8495382 12.9997 -2.896702 2.367295 21.28654 1.961895 -1.049517 -21.05181 6.397957 -4.462176 -29.96453 10.67176 87.75655 16.34352 -3.448936 -0 0 28.08487 -23.64177 12.46954 18.3593 1.800731 -16.30775 -4.877483 -97.7451 17.47262 37.17773 0 0 -5.216143 0.3686558 11.90406 13.43351
-306.8356 104.7128 3108.874 -1.61953 -8.140082 -17.78816 0.5303389 -8.450006 2.385441 -0 52.18565 -0 -1.819412 4.275254 -5.79637 -5.014181 1.760146 -8.797408 -0 16.45036 -0 -0.6878669 -13.27337 16.88825 0.4627108 -1.707661 7.038356 -0.7852074 13.20341 -3.296176 2.408239 21.64826 2.217303 -0.7469507 -21.12902 6.501242 -4.573149 -28.74214 10.65915 89.21962 16.6001 -5.714512 -0 0 25.17158 -23.26796 12.02102 17.24443 2.009246 -17.32699 -5.239431 -96.72587 17.77702 35.09432 0 0 -6.604146 1.182743 12.24594 12.86834
-307.9314 104.8569 3114.046 -1.605297 -7.581701 -16.83714 0.5833023 -14.69335 1.693842 -0 44.68149 -0 -2.151781 2.383673 -6.198797 -4.884265 5.938027 -8.827886 -0 13.83238 -0 -1.127415 -15.18489 15.95086 0.5658969 -1.558336 6.643988 -0.6986705 13.45934 -3.764713 2.419078 21.92706 2.478315 -0.4684251 -21.24094 6.598033 -4.727087 -27.63002 10.66604 90.79207 16.83243 -8.100236 -0 0 22.30548 -22.92289 11.66293 16.15909 2.203792 -18.50793 -5.645086 -95.51206 17.9262 32.92615 0 0 -8.513101 2.097379 12.56948 12.2044
-309.113 104.3219 3119.22 -1.316094 -6.979169 -16.05141 0.3332119 -19.73392 0.4754021 -0 34.58981 -0 -2.420875 0.2771547 -6.244335 -4.933053 9.495076 -8.780464 -0 12.00513 -0 -1.649054 -17.18623 14.90882 0.6762187 -1.510031 6.293728 -0.5952915 13.7488 -4.273379 2.398193 22.11472 2.735787 -0.2225412 -21.36383 6.679216 -4.906979 -26.67567 10.6975 92.37365 17.00949 -10.47326 -0 0 19.63691 -22.62662 11.38265 15.15549 2.374424 -19.78451 -6.073746 -94.17457 17.90074 30.77113 0 0 -10.84085 3.049311 12.85132 11.47899
